<svg width="12" height="15" viewBox="0 0 12 15" fill="none" xmlns="http://www.w3.org/2000/svg">
<g clip-path="url(#clip0_9_2)">
<path d="M6.31934 14.625C7.82227 12.7441 11.25 8.18555 11.25 5.625C11.25 2.51953 8.73047 0 5.625 0C2.51953 0 0 2.51953 0 5.625C0 8.18555 3.42773 12.7441 4.93066 14.625C5.29102 15.0732 5.95898 15.0732 6.31934 14.625ZM5.625 3.75C6.12228 3.75 6.59919 3.94754 6.95083 4.29917C7.30246 4.65081 7.5 5.12772 7.5 5.625C7.5 6.12228 7.30246 6.5992 6.95083 6.95083C6.59919 7.30246 6.12228 7.5 5.625 7.5C5.12772 7.5 4.65081 7.30246 4.29917 6.95083C3.94754 6.5992 3.75 6.12228 3.75 5.625C3.75 5.12772 3.94754 4.65081 4.29917 4.29917C4.65081 3.94754 5.12772 3.75 5.625 3.75Z" fill="black"/>
</g>
<defs>
<clipPath id="clip0_9_2">
<rect width="11.25" height="15" fill="white"/>
</clipPath>
</defs>
</svg>
